<svg width="14" height="14" viewBox="0 0 14 14" fill="none" xmlns="http://www.w3.org/2000/svg">
<path d="M1.13011 1.13206C1.21139 1.05058 1.30795 0.985928 1.41425 0.941816C1.52056 0.897705 1.63452 0.875 1.74961 0.875C1.8647 0.875 1.97867 0.897705 2.08497 0.941816C2.19127 0.985928 2.28783 1.05058 2.36911 1.13206L6.99961 5.76431L11.6301 1.13206C11.7115 1.05071 11.808 0.986176 11.9143 0.942148C12.0206 0.898119 12.1346 0.875458 12.2496 0.875458C12.3647 0.875458 12.4786 0.898119 12.5849 0.942148C12.6912 0.986176 12.7878 1.05071 12.8691 1.13206C12.9505 1.21342 13.015 1.31 13.059 1.41629C13.1031 1.52259 13.1257 1.63651 13.1257 1.75156C13.1257 1.86662 13.1031 1.98054 13.059 2.08684C13.015 2.19313 12.9505 2.28971 12.8691 2.37106L8.23686 7.00156L12.8691 11.6321C12.9505 11.7134 13.015 11.81 13.059 11.9163C13.1031 12.0226 13.1257 12.1365 13.1257 12.2516C13.1257 12.3666 13.1031 12.4805 13.059 12.5868C13.015 12.6931 12.9505 12.7897 12.8691 12.8711C12.7878 12.9524 12.6912 13.017 12.5849 13.061C12.4786 13.105 12.3647 13.1277 12.2496 13.1277C12.1346 13.1277 12.0206 13.105 11.9143 13.061C11.808 13.017 11.7115 12.9524 11.6301 12.8711L6.99961 8.23881L2.36911 12.8711C2.28776 12.9524 2.19118 13.017 2.08488 13.061C1.97859 13.105 1.86466 13.1277 1.74961 13.1277C1.63456 13.1277 1.52063 13.105 1.41434 13.061C1.30805 13.017 1.21146 12.9524 1.13011 12.8711C1.04876 12.7897 0.984223 12.6931 0.940195 12.5868C0.896166 12.4805 0.873505 12.3666 0.873505 12.2516C0.873505 12.1365 0.896166 12.0226 0.940195 11.9163C0.984223 11.81 1.04876 11.7134 1.13011 11.6321L5.76236 7.00156L1.13011 2.37106C1.04862 2.28978 0.983975 2.19323 0.939863 2.08692C0.895752 1.98062 0.873047 1.86666 0.873047 1.75156C0.873047 1.63647 0.895752 1.52251 0.939863 1.4162C0.983975 1.3099 1.04862 1.21334 1.13011 1.13206Z" fill="white"/>
</svg>
