<svg width="30" height="20" viewBox="0 0 30 20" fill="none" xmlns="http://www.w3.org/2000/svg">
<path d="M15.0001 19.9094C11.8963 19.917 8.85267 19.0635 6.21563 17.4461C4.27818 16.2578 2.5722 14.5029 1.25996 12.5642C0.378576 11.262 0.378928 9.5571 1.27233 8.26316C3.17399 5.50894 5.87662 3.21358 8.97562 2.02455C12.8512 0.537578 17.1491 0.537849 21.0244 2.02455C24.1232 3.21338 26.8259 5.50874 28.7276 8.26313C29.621 9.55709 29.6214 11.262 28.74 12.5642C27.4278 14.5029 25.7218 16.2578 23.7844 17.4461C21.1475 19.0635 18.1041 19.917 15.0001 19.9094ZM3.1612 8.17846C2.12265 9.48655 2.12269 11.3333 3.16126 12.6413C4.84539 14.7625 7.09339 16.4053 9.677 17.3709C13.1069 18.6528 16.8926 18.6527 20.3224 17.3709C22.9061 16.4054 25.1541 14.7626 26.8382 12.6414C27.8768 11.3333 27.8768 9.48658 26.8382 8.1785C25.1541 6.05731 22.9061 4.41452 20.3224 3.44893C16.8926 2.16706 13.1069 2.16713 9.677 3.44893C7.09339 4.41447 4.84531 6.05725 3.1612 8.17846ZM15.0001 15.9309C13.5181 15.9309 12.097 15.3491 11.0491 14.3137C10.0012 13.2782 9.41235 11.8742 9.41235 10.4099C9.41235 8.94566 10.0011 7.54156 11.0491 6.50617C12.097 5.47078 13.5181 4.88899 15.0001 4.88899C16.482 4.88899 17.9031 5.47074 18.951 6.50617C19.999 7.5416 20.5878 8.94566 20.5878 10.4099C20.5859 11.8736 19.9966 13.2769 18.9492 14.3118C17.9018 15.3468 16.4816 15.929 15.0001 15.9309ZM15.0001 6.46656C13.9414 6.46656 12.9263 6.88194 12.178 7.6216C11.4294 8.36104 11.009 9.36392 11.009 10.4099C11.009 11.4559 11.4294 12.4589 12.178 13.1982C12.9264 13.9379 13.9414 14.3533 15.0001 14.3533C16.0587 14.3533 17.0738 13.9379 17.8221 13.1982C18.5707 12.4588 18.9911 11.4559 18.9911 10.4099C18.9901 9.36446 18.5694 8.36205 17.821 7.62269C17.0726 6.88332 16.0581 6.46764 15.0001 6.46656Z" fill="#5A5A89"/>
</svg>
