<svg width="26" height="26" viewBox="0 0 26 26" fill="none" xmlns="http://www.w3.org/2000/svg">
<path d="M11.9195 2.072C12.2928 1.08733 13.7057 1.08733 14.0802 2.072L16.4952 8.76166C16.6643 9.205 17.0948 9.50016 17.5755 9.50016H23.5103C24.607 9.50016 25.0853 10.8652 24.2232 11.5337L19.9998 15.3335C19.8107 15.4789 19.6724 15.6806 19.6049 15.9094C19.5374 16.1383 19.5442 16.3827 19.6242 16.6075L21.1665 23.1443C21.5422 24.1943 20.3265 25.0962 19.4072 24.4498L13.6707 20.8098C13.4742 20.6718 13.24 20.5977 12.9998 20.5977C12.7597 20.5977 12.5255 20.6718 12.329 20.8098L6.59251 24.4498C5.67434 25.0962 4.45751 24.1932 4.83318 23.1443L6.37551 16.6075C6.45552 16.3827 6.46226 16.1383 6.39477 15.9094C6.32728 15.6806 6.18903 15.4789 5.99984 15.3335L1.77651 11.5337C0.913179 10.8652 1.39385 9.50016 2.48818 9.50016H8.42301C8.65668 9.50094 8.88509 9.43075 9.078 9.29888C9.27091 9.16701 9.41923 8.97967 9.50334 8.76166L11.9183 2.072H11.9195Z" stroke="#B6B6EA" stroke-width="2" stroke-linecap="round" stroke-linejoin="round"/>
</svg>
