<svg width="22" height="24" viewBox="0 0 22 24" fill="none" xmlns="http://www.w3.org/2000/svg">
<path d="M9.79775 1.20882C10.1227 0.90163 10.5529 0.730469 11 0.730469C11.4471 0.730469 11.8773 0.90163 12.2023 1.20882L20.6793 9.22207C21.2043 9.71732 21.5 10.4086 21.5 11.1296V20.8771C21.5 21.5733 21.2234 22.2409 20.7312 22.7332C20.2389 23.2255 19.5712 23.5021 18.875 23.5021H15.375C15.0301 23.5021 14.6886 23.4341 14.3701 23.3021C14.0515 23.1701 13.762 22.9765 13.5182 22.7326C13.2744 22.4887 13.0811 22.1991 12.9493 21.8804C12.8175 21.5617 12.7498 21.2202 12.75 20.8753V16.5003C12.75 16.2683 12.6578 16.0457 12.4937 15.8816C12.3296 15.7175 12.1071 15.6253 11.875 15.6253H10.125C9.89294 15.6253 9.67038 15.7175 9.50628 15.8816C9.34219 16.0457 9.25 16.2683 9.25 16.5003V20.8753C9.25 21.5715 8.97344 22.2392 8.48116 22.7315C7.98887 23.2238 7.32119 23.5003 6.625 23.5003H3.125C2.42881 23.5003 1.76113 23.2238 1.26884 22.7315C0.776562 22.2392 0.5 21.5715 0.5 20.8753V11.1278C0.5 10.4068 0.7975 9.71557 1.3225 9.22032L9.79775 1.20532V1.20882ZM11 2.47932L2.523 10.4943C2.43694 10.5759 2.36837 10.6741 2.32144 10.783C2.27451 10.8919 2.2502 11.0092 2.25 11.1278V20.8753C2.25 21.1074 2.34219 21.3299 2.50628 21.494C2.67038 21.6581 2.89294 21.7503 3.125 21.7503H6.625C6.85706 21.7503 7.07962 21.6581 7.24372 21.494C7.40781 21.3299 7.5 21.1074 7.5 20.8753V16.5003C7.5 15.8041 7.77656 15.1364 8.26884 14.6442C8.76113 14.1519 9.42881 13.8753 10.125 13.8753H11.875C12.5712 13.8753 13.2389 14.1519 13.7312 14.6442C14.2234 15.1364 14.5 15.8041 14.5 16.5003V20.8753C14.5 21.1074 14.5922 21.3299 14.7563 21.494C14.9204 21.6581 15.1429 21.7503 15.375 21.7503H18.875C19.1071 21.7503 19.3296 21.6581 19.4937 21.494C19.6578 21.3299 19.75 21.1074 19.75 20.8753V11.1278C19.75 11.0089 19.7258 10.8913 19.6789 10.7821C19.632 10.6729 19.5633 10.5744 19.477 10.4926L11 2.47932Z" fill="#B6B6EA"/>
</svg>
