<svg width="12" height="8" viewBox="0 0 12 8" fill="none" xmlns="http://www.w3.org/2000/svg">
<path d="M11.65 3.64955L8.86 0.859551C8.79045 0.788103 8.70117 0.739032 8.60357 0.718619C8.50597 0.698206 8.4045 0.70738 8.31215 0.744966C8.21979 0.782552 8.14075 0.846841 8.08515 0.929604C8.02954 1.01237 7.99989 1.10984 8 1.20955V2.99955H1C0.45 2.99955 0 3.44955 0 3.99955C0 4.54955 0.45 4.99955 1 4.99955H8V6.78955C8 7.23955 8.54 7.45955 8.85 7.13955L11.64 4.34955C11.84 4.15955 11.84 3.83955 11.65 3.64955Z" fill="#262146"/>
</svg>
