<svg width="25" height="27" viewBox="0 0 25 27" fill="none" xmlns="http://www.w3.org/2000/svg">
<path d="M12.5 0.75C11.1403 0.75 9.81104 1.15321 8.68045 1.90865C7.54987 2.66408 6.66868 3.73781 6.14833 4.99405C5.62798 6.25029 5.49183 7.63263 5.7571 8.96625C6.02237 10.2999 6.67716 11.5249 7.63864 12.4864C8.60013 13.4478 9.82514 14.1026 11.1588 14.3679C12.4924 14.6332 13.8747 14.497 15.1309 13.9767C16.3872 13.4563 17.4609 12.5751 18.2164 11.4445C18.9718 10.314 19.375 8.98475 19.375 7.625C19.375 5.80164 18.6507 4.05295 17.3614 2.76364C16.072 1.47433 14.3234 0.75 12.5 0.75ZM12.5 11.75C11.6842 11.75 10.8866 11.5081 10.2083 11.0548C9.52992 10.6016 9.00121 9.95731 8.689 9.20357C8.37679 8.44982 8.2951 7.62042 8.45426 6.82025C8.61342 6.02008 9.00629 5.28508 9.58318 4.70818C10.1601 4.13129 10.8951 3.73843 11.6953 3.57926C12.4954 3.4201 13.3248 3.50179 14.0786 3.814C14.8323 4.12621 15.4766 4.65492 15.9298 5.33327C16.3831 6.01163 16.625 6.80915 16.625 7.625C16.625 8.71902 16.1904 9.76823 15.4168 10.5418C14.6432 11.3154 13.594 11.75 12.5 11.75ZM24.875 26.875V25.5C24.875 22.9473 23.8609 20.4991 22.0559 18.6941C20.2509 16.8891 17.8027 15.875 15.25 15.875H9.75C7.19729 15.875 4.74913 16.8891 2.9441 18.6941C1.13906 20.4991 0.125 22.9473 0.125 25.5V26.875H2.875V25.5C2.875 23.6766 3.59933 21.928 4.88864 20.6386C6.17795 19.3493 7.92664 18.625 9.75 18.625H15.25C17.0734 18.625 18.822 19.3493 20.1114 20.6386C21.4007 21.928 22.125 23.6766 22.125 25.5V26.875H24.875Z" fill="white"/>
</svg>
